<svg width="77" height="77" viewBox="0 0 77 77" fill="none" xmlns="http://www.w3.org/2000/svg">
<g clip-path="url(#clip0_958_1481)">
<path d="M76.2786 58.5796H0V58.6177H76.2786V58.5796Z" fill="#EBEBEB"/>
<path d="M68.6355 61.0354H63.5825V61.0735H68.6355V61.0354Z" fill="#EBEBEB"/>
<path d="M61.6613 61.0354H50.8594V61.0735H61.6613V61.0354Z" fill="#EBEBEB"/>
<path d="M44.9025 59.6189H41.9746V59.657H44.9025V59.6189Z" fill="#EBEBEB"/>
<path d="M13.2341 59.8752H8.00293V59.9134H13.2341V59.8752Z" fill="#EBEBEB"/>
<path d="M24.1044 59.8752H14.5928V59.9134H24.1044V59.8752Z" fill="#EBEBEB"/>
<path d="M34.3482 60.5193H28.7319V60.5574H34.3482V60.5193Z" fill="#EBEBEB"/>
<path d="M36.1585 51.776H6.6999C6.2198 51.776 5.8291 51.3853 5.8291 50.9052V9.49628C5.8291 9.01619 6.2198 8.62549 6.6999 8.62549H36.1585C36.6385 8.62549 37.0292 9.01619 37.0292 9.49628V50.9052C37.0292 51.3853 36.6385 51.776 36.1585 51.776ZM6.6999 8.66378C6.2407 8.66378 5.86724 9.03724 5.86724 9.49644V50.9053C5.86724 51.3645 6.2407 51.738 6.6999 51.738H36.1585C36.6176 51.738 36.991 51.3645 36.991 50.9053V9.49628C36.991 9.03724 36.6176 8.66363 36.1585 8.66363L6.6999 8.66378Z" fill="#EBEBEB"/>
<path d="M69.1558 51.776H39.6973C39.2172 51.776 38.8267 51.3853 38.8267 50.9052V9.49628C38.8267 9.01619 39.2174 8.62549 39.6973 8.62549H69.1558C69.636 8.62549 70.0266 9.01619 70.0266 9.49628V50.9052C70.0267 51.3853 69.636 51.776 69.1558 51.776ZM39.6973 8.66378C39.2383 8.66378 38.8648 9.03724 38.8648 9.49644V50.9053C38.8648 51.3645 39.2383 51.738 39.6973 51.738H69.1558C69.615 51.738 69.9884 51.3645 69.9884 50.9053V9.49628C69.9884 9.03724 69.615 8.66363 69.1558 8.66363L39.6973 8.66378Z" fill="#EBEBEB"/>
<path d="M11.5696 29.7197L32.2715 29.7197V11.7834L11.5696 11.7834L11.5696 29.7197Z" fill="#E6E6E6"/>
<path d="M11.1087 29.7197L31.8105 29.7197L31.8105 11.7834L11.1087 11.7834L11.1087 29.7197Z" fill="#F5F5F5"/>
<path d="M30.9849 29.0794L30.9849 12.425L11.9346 12.425L11.9346 29.0794L30.9849 29.0794Z" fill="#FAFAFA"/>
<path d="M23.3449 29.0794L26.7963 12.425H19.5756L16.124 29.0794H23.3449Z" fill="white"/>
<path d="M12.2827 29.0794L12.2827 12.425H11.9349L11.9349 29.0794H12.2827Z" fill="#E6E6E6"/>
<path d="M11.451 26.0928L31.4697 26.0928V25.2322L11.451 25.2322V26.0928Z" fill="#F5F5F5"/>
<path d="M31.3116 57.6716H34.6172V43.3355H31.3116V57.6716Z" fill="#F0F0F0"/>
<path d="M9.7216 58.5801H33.9829V57.6718H9.7216V58.5801Z" fill="#F0F0F0"/>
<path d="M31.312 43.3354H9.08691V57.6716H31.312V43.3354Z" fill="#F5F5F5"/>
<path d="M30.0121 45.1001H10.3862V49.8018H30.0121V45.1001Z" fill="#F0F0F0"/>
<path d="M30.0121 51.2051H10.3862V55.9067H30.0121V51.2051Z" fill="#F0F0F0"/>
<path d="M14.9098 47.7734H25.4887C25.6659 47.7734 25.811 47.6283 25.811 47.451C25.811 47.2737 25.6659 47.1287 25.4887 47.1287H14.9098C14.7325 47.1287 14.5874 47.2737 14.5874 47.451C14.5874 47.6283 14.7325 47.7734 14.9098 47.7734Z" fill="#F5F5F5"/>
<path d="M14.9098 53.8786H25.4887C25.6659 53.8786 25.811 53.7335 25.811 53.5562C25.811 53.379 25.6659 53.2339 25.4887 53.2339H14.9098C14.7325 53.2339 14.5874 53.379 14.5874 53.5562C14.5874 53.7335 14.7325 53.8786 14.9098 53.8786Z" fill="#F5F5F5"/>
<path d="M65.8477 21.1579C67.7302 20.639 68.3742 17.2236 63.6167 15.8293C64.666 19.2642 62.5654 22.0625 65.8477 21.1579Z" fill="#EBEBEB"/>
<path d="M66.2641 22.6405C67.7475 21.0366 66.3443 17.4098 60.999 18.8914C64.0233 21.5376 63.6776 25.4371 66.2641 22.6405Z" fill="#E0E0E0"/>
<path d="M64.7985 23.0517C63.5563 21.822 65.3355 17.5432 69.4363 19.5261C67.1125 21.7478 66.9644 25.1956 64.7985 23.0517Z" fill="#FAFAFA"/>
<path d="M63.5613 25.4484H67.1753L67.448 23.0032H63.2886L63.5613 25.4484Z" fill="#E6E6E6"/>
<path d="M63.2469 23.4394H67.4877C67.6368 23.4394 67.7576 23.3186 67.7576 23.1695C67.7576 23.0205 67.6368 22.8997 67.4877 22.8997H63.2469C63.0979 22.8997 62.9771 23.0205 62.9771 23.1695C62.9772 23.3186 63.098 23.4394 63.2469 23.4394Z" fill="#E6E6E6"/>
<path d="M33.1519 54.4383V50.2968H36.602V46.1553H40.0521V42.014H43.5023V37.8724H46.9524V33.7309H50.4024V29.5896H53.8525V25.448H57.3028H76.2784V58.5798H33.1519H29.7017V54.4383H33.1519Z" fill="#FAFAFA"/>
<path d="M52.1278 54.4383V50.2968H55.5779V46.1553H59.028V42.014H62.4782V37.8724H65.9283V33.7309H69.3784V29.5896H72.8286V25.448H76.2787V29.5896V58.5798H52.1278H48.6777V54.4383H52.1278Z" fill="#E0E0E0"/>
<path d="M48.6776 54.4385H29.4985V55.6809H48.6776V54.4385Z" fill="#EBEBEB"/>
<path d="M52.1278 50.2971H32.9487V51.5395H52.1278V50.2971Z" fill="#EBEBEB"/>
<path d="M55.578 46.1553H36.3989V47.3977H55.578V46.1553Z" fill="#EBEBEB"/>
<path d="M59.0277 42.0139H39.8486V43.2563H59.0277V42.0139Z" fill="#EBEBEB"/>
<path d="M62.4783 37.8721H43.2993V39.1145H62.4783V37.8721Z" fill="#EBEBEB"/>
<path d="M65.928 33.7312H46.749V34.9736H65.928V33.7312Z" fill="#EBEBEB"/>
<path d="M69.3782 29.5894H50.1992V30.8318H69.3782V29.5894Z" fill="#EBEBEB"/>
<path d="M72.8284 25.448H53.6494V26.6904H72.8284V25.448Z" fill="#EBEBEB"/>
<path d="M38.1397 65.4707C54.4758 65.4707 67.7189 64.6973 67.7189 63.7433C67.7189 62.7893 54.4758 62.0159 38.1397 62.0159C21.8036 62.0159 8.56055 62.7893 8.56055 63.7433C8.56055 64.6973 21.8036 65.4707 38.1397 65.4707Z" fill="#F5F5F5"/>
<path d="M51.06 24.4414C51.0338 24.8986 50.9802 25.3189 50.9206 25.754C50.8606 26.1856 50.7801 26.6138 50.688 27.041C50.5078 27.8955 50.2596 28.7431 49.9177 29.5693L49.7799 29.877L49.7455 29.9538L49.7282 29.9921C49.7226 30.0046 49.7181 30.0154 49.7047 30.041C49.6617 30.1269 49.6066 30.2174 49.5287 30.3056C49.4504 30.3927 49.3523 30.4773 49.2367 30.5362C49.1238 30.5951 48.9991 30.6339 48.8881 30.6458C48.6615 30.6726 48.4843 30.6326 48.3341 30.5883C48.0394 30.4918 47.8269 30.3588 47.6264 30.223C47.4293 30.0845 47.253 29.9382 47.0841 29.7882C46.4212 29.1782 45.869 28.5249 45.3604 27.8148L45.8667 27.3868C46.1639 27.6688 46.474 27.9534 46.7839 28.2239C47.0925 28.4968 47.4119 28.7553 47.7334 28.9864C47.8934 29.1017 48.0556 29.2094 48.215 29.2982C48.3712 29.3872 48.5334 29.4599 48.6454 29.4819C48.6983 29.4929 48.7346 29.4865 48.718 29.4828C48.7029 29.476 48.635 29.5077 48.6208 29.5258C48.6118 29.5338 48.6116 29.533 48.6141 29.5237L48.6631 29.3963L48.7697 29.1191C49.0344 28.3672 49.2341 27.5783 49.388 26.7763C49.4681 26.376 49.5249 25.9697 49.5854 25.5647C49.6432 25.163 49.6896 24.7435 49.7247 24.3577L51.06 24.4414Z" fill="#F4EDEC"/>
<path d="M50.1362 22.7633C49.5676 22.9081 49.1699 25.2477 49.1699 25.2477L50.7367 26.3132C50.7367 26.3132 52.2389 23.9528 51.8015 23.3278C51.346 22.6768 50.9658 22.552 50.1362 22.7633Z" fill="#F4F4F4"/>
<path d="M50.1362 22.7633C49.5676 22.9081 49.1699 25.2477 49.1699 25.2477L50.7367 26.3132C50.7367 26.3132 52.2389 23.9528 51.8015 23.3278C51.346 22.6768 50.9658 22.552 50.1362 22.7633Z" fill="#F4F4F4"/>
<path opacity="0.4" d="M50.1362 22.7633C49.5676 22.9081 49.1699 25.2477 49.1699 25.2477L50.7367 26.3132C50.7367 26.3132 52.2389 23.9528 51.8015 23.3278C51.346 22.6768 50.9658 22.552 50.1362 22.7633Z" fill="black"/>
<path opacity="0.3" d="M50.1873 23.2859L49.7505 25.6441L50.6312 26.2412L50.1873 23.2859Z" fill="black"/>
<path d="M45.8963 27.2887L45.1511 26.1116L44.7285 27.4492C44.7285 27.4492 45.3398 28.0902 45.8925 27.9374L45.8963 27.2887Z" fill="#F4EDEC"/>
<path d="M44.0584 25.7222L43.7651 26.8613L44.7282 27.4493L45.151 26.1116L44.0584 25.7222Z" fill="#F4EDEC"/>
<path d="M53.2118 62.1433H51.8324L51.7402 58.9487H53.1198L53.2118 62.1433Z" fill="#F4EDEC"/>
<path d="M65.3853 55.7354L64.3339 56.6285L61.9277 54.481L62.979 53.5879L65.3853 55.7354Z" fill="#F4EDEC"/>
<path d="M64.0455 56.5215L65.0651 55.3545C65.1022 55.3121 65.1619 55.3034 65.2086 55.3336L66.2481 56.0074C66.3559 56.0773 66.3745 56.2389 66.2873 56.3354C65.9248 56.7362 65.7295 56.9115 65.2812 57.4247C65.0053 57.7405 64.6351 58.2303 64.2542 58.6665C63.8816 59.093 63.4218 58.749 63.5413 58.5333C64.0775 57.5663 63.9483 57.2267 63.9576 56.7511C63.9594 56.6653 63.9911 56.5838 64.0455 56.5215Z" fill="#A7A7A7"/>
<path d="M51.7853 61.9832H53.3351C53.3916 61.9832 53.4373 62.0224 53.4453 62.0774L53.6219 63.3037C53.6402 63.4309 53.5308 63.5513 53.4007 63.549C52.8604 63.5397 52.5999 63.508 51.9185 63.508C51.4991 63.508 50.632 63.5514 50.0528 63.5514C49.4866 63.5514 49.4429 62.9789 49.6841 62.927C50.7651 62.6945 51.1906 62.3739 51.5548 62.068C51.6204 62.0129 51.7028 61.9832 51.7853 61.9832Z" fill="#A7A7A7"/>
<path opacity="0.2" d="M51.7407 58.9497L51.788 60.5963H53.168L53.1208 58.9497H51.7407Z" fill="black"/>
<path opacity="0.2" d="M62.9799 53.5884L61.9282 54.4818L63.169 55.5884L64.2208 54.6949L62.9799 53.5884Z" fill="black"/>
<path d="M50.1362 22.763C50.1362 22.763 49.479 22.9945 50.7954 31.0888C53.0186 31.0888 55.3161 31.0888 56.3981 31.0888C56.3041 28.8086 56.3014 27.4026 57.3912 22.7231C57.3912 22.7231 56.2173 22.4677 55.0121 22.4095C54.0693 22.3641 53.2969 22.334 52.4681 22.4097C51.3753 22.5093 50.1362 22.763 50.1362 22.763Z" fill="#F4F4F4"/>
<path opacity="0.4" d="M50.1362 22.763C50.1362 22.763 49.479 22.9945 50.7954 31.0888C53.0186 31.0888 55.3161 31.0888 56.3981 31.0888C56.3041 28.8086 56.3014 27.4026 57.3912 22.7231C57.3912 22.7231 56.2173 22.4677 55.0121 22.4095C54.0693 22.3641 53.2969 22.334 52.4681 22.4097C51.3753 22.5093 50.1362 22.763 50.1362 22.763Z" fill="black"/>
<path d="M55.0121 22.4093C54.0693 22.3651 53.2973 22.3346 52.4674 22.4108C52.3301 22.4231 52.1898 22.4383 52.0509 22.4551C51.9579 22.6153 51.8877 22.8304 51.9747 23.0501C52.1532 23.494 52.7969 23.5459 53.2668 23.5459C55.0014 23.5459 55.2943 22.5329 55.3065 22.4902L55.3233 22.4292C55.2196 22.4215 55.1158 22.4139 55.0121 22.4093Z" fill="white"/>
<path d="M54.7601 19.5454C54.5996 20.364 54.4394 21.8638 55.0121 22.41C55.0121 22.41 54.7883 23.2403 53.2673 23.2403C51.5949 23.2403 52.4681 22.4101 52.4681 22.4101C53.3808 22.1921 53.3573 21.5149 53.1984 20.8789L54.7601 19.5454Z" fill="#F4EDEC"/>
<path opacity="0.2" d="M54.1231 20.0891L53.1987 20.8778C53.2369 21.0284 53.2666 21.181 53.2771 21.3294C53.6259 21.2791 54.1049 20.8963 54.1418 20.5311C54.1605 20.3489 54.1528 20.1739 54.1231 20.0891Z" fill="black"/>
<path d="M53.809 15.093C53.667 14.6135 53.5446 13.8558 54.4017 13.5211C54.0682 13.1124 53.9866 12.3433 54.3963 11.8864C54.8061 11.4297 55.4334 11.5984 55.4334 11.5984C55.4334 11.5984 55.6163 10.4832 56.9724 10.6785C58.3285 10.8736 57.7245 11.7714 57.7245 11.7714C57.7245 11.7714 59.5755 11.4048 59.6991 13.1484C59.8226 14.8919 58.7601 14.6768 58.7601 14.6768C58.7601 14.6768 59.5856 15.369 59.1285 16.1302C58.6715 16.8917 57.6135 16.6293 57.6135 16.6293C57.6135 16.6293 57.1161 17.9744 55.9448 17.209C54.7735 16.4438 53.809 15.093 53.809 15.093Z" fill="#A7A7A7"/>
<path d="M51.0603 16.1056C50.6016 16.6965 50.8042 17.3671 51.2086 17.6255C52.1928 18.2542 53.616 15.6193 53.2459 15.3035C52.8759 14.9875 51.5191 15.5148 51.0603 16.1056Z" fill="#A7A7A7"/>
<path d="M55.1935 14.699C54.5462 14.438 53.891 14.7106 53.6859 15.1048C53.1869 16.0641 55.4524 17.7931 56.1085 16.5933C56.4982 15.8811 55.8608 14.968 55.1935 14.699Z" fill="#F4F4F4"/>
<path d="M54.9174 17.63C54.9643 18.9983 55.0134 19.5765 54.3933 20.3405C53.4605 21.4897 51.7696 21.248 51.315 19.9214C50.9056 18.7272 50.8979 16.6902 52.1774 16.0213C53.4381 15.3621 54.8706 16.2617 54.9174 17.63Z" fill="#F4EDEC"/>
<path d="M54.7142 18.3517C54.1087 18.125 53.9507 17.412 54.0504 17.138C53.7478 17.1253 53.0776 17.0162 52.8268 16.6373C52.3508 16.9366 51.3454 17.2466 51.2361 16.7404C51.1267 16.2342 52.6452 14.9257 53.7922 14.8255C55.1556 14.7064 56.502 16.0475 56.1544 17.3294C55.8065 18.6114 54.7142 18.3517 54.7142 18.3517Z" fill="#A7A7A7"/>
<path d="M50.795 31.0893C50.795 31.0893 49.707 41.7156 49.7973 45.9224C49.8913 50.298 51.4948 60.2776 51.4948 60.2776H53.3601C53.3601 60.2776 53.0649 50.5537 53.2299 46.2563C53.4096 41.5715 54.8978 31.0891 54.8978 31.0891H50.795V31.0893Z" fill="#A7A7A7"/>
<path d="M53.5221 60.3446H51.3335L51.1729 59.6465L53.6238 59.561L53.5221 60.3446Z" fill="#F4F4F4"/>
<path opacity="0.2" d="M53.2121 33.7338C51.836 36.5019 52.9358 41.5519 53.4225 43.4306C53.6721 40.6089 54.0927 37.1597 54.4207 34.6268C54.2121 33.1936 53.8468 32.4575 53.2121 33.7338Z" fill="black"/>
<path d="M52.2744 31.0896C52.2744 31.0896 53.5435 42.137 54.5019 45.6838C55.6398 49.8947 62.7078 55.5616 62.7078 55.5616L64.1415 54.3437C64.1415 54.3437 59.0187 48.1879 58.1486 45.9694C56.2919 41.2348 57.8812 34.179 56.3973 31.0896H52.2744Z" fill="#A7A7A7"/>
<path d="M64.3713 54.2775L62.5926 55.7883L61.9282 55.3901L63.9403 53.5186L64.3713 54.2775Z" fill="#F4F4F4"/>
<path d="M52.8905 18.2081C52.9012 18.3189 52.851 18.4144 52.7787 18.4212C52.7063 18.4281 52.6389 18.344 52.6284 18.2333C52.6177 18.1225 52.6679 18.027 52.7402 18.0202C52.8125 18.0133 52.8798 18.0974 52.8905 18.2081Z" fill="#A7A7A7"/>
<path d="M51.6385 18.3277C51.6492 18.4385 51.599 18.5339 51.5267 18.5409C51.4542 18.5479 51.387 18.4637 51.3764 18.3529C51.3658 18.2422 51.4159 18.1467 51.4883 18.1398C51.5606 18.1329 51.628 18.217 51.6385 18.3277Z" fill="#A7A7A7"/>
<path d="M51.5196 18.1432L51.2471 18.0923C51.2471 18.0923 51.4031 18.2863 51.5196 18.1432Z" fill="#A7A7A7"/>
<path d="M51.9877 18.4861C51.9877 18.4861 51.8455 18.981 51.6606 19.2309C51.8199 19.3534 52.0626 19.2672 52.0626 19.2672L51.9877 18.4861Z" fill="#ED847E"/>
<path d="M52.6786 19.6327C52.6222 19.6484 52.5609 19.6602 52.4943 19.6666C52.4763 19.6682 52.4605 19.6551 52.4586 19.6371C52.457 19.6193 52.4696 19.6034 52.4881 19.6014C52.9738 19.5552 53.1686 19.1936 53.1706 19.19C53.179 19.174 53.1987 19.1677 53.2147 19.1761C53.2307 19.1845 53.237 19.2042 53.2286 19.2202C53.2213 19.2342 53.0646 19.5254 52.6786 19.6327Z" fill="#A7A7A7"/>
<path d="M55.2397 18.5812C55.2069 18.8631 55.0468 19.1036 54.8616 19.2454C54.5831 19.4587 54.3138 19.241 54.2825 18.91C54.2543 18.612 54.3652 18.1421 54.6972 18.0589C55.0243 17.9766 55.2772 18.2589 55.2397 18.5812Z" fill="#F4EDEC"/>
<path d="M53.024 17.4231C53.0074 17.4277 52.9889 17.4257 52.9729 17.4163C52.723 17.2663 52.5056 17.3688 52.5032 17.3701C52.471 17.3853 52.4316 17.3723 52.4157 17.3398C52.4 17.3073 52.4135 17.2683 52.446 17.2524C52.4572 17.2469 52.73 17.118 53.0402 17.3041C53.0711 17.3228 53.081 17.3629 53.0626 17.3938C53.0534 17.4088 53.0396 17.4189 53.024 17.4231Z" fill="#A7A7A7"/>
<path d="M51.0262 17.803C51.0105 17.8074 50.9933 17.8059 50.9779 17.7976C50.9461 17.7805 50.9341 17.7409 50.951 17.7092C51.1217 17.3906 51.422 17.3612 51.4348 17.3601C51.4708 17.3571 51.5024 17.3836 51.5054 17.4196C51.5085 17.4555 51.4819 17.487 51.4461 17.4904C51.4343 17.4913 51.2018 17.5175 51.0662 17.7709C51.0577 17.7873 51.0429 17.7984 51.0262 17.803Z" fill="#A7A7A7"/>
<path d="M57.963 24.2117C58.28 24.9838 58.5399 25.7469 58.7663 26.5398C58.9894 27.3315 59.1836 28.135 59.2725 28.9867C59.2988 29.1972 59.3059 29.4177 59.3163 29.6352L59.3172 29.6557V29.6897L59.3154 29.76C59.3122 29.8043 59.3082 29.8493 59.3013 29.8894C59.289 29.9725 59.2704 30.0459 59.2498 30.1155C59.208 30.2535 59.1554 30.3725 59.0997 30.4827C58.8742 30.9164 58.6054 31.2456 58.3265 31.5645C57.761 32.1898 57.1588 32.7317 56.5007 33.231L56.0537 32.7414C56.5622 32.1488 57.0754 31.5393 57.5091 30.9166C57.7225 30.6078 57.9279 30.2856 58.0437 29.995C58.0714 29.9237 58.092 29.856 58.1038 29.8015C58.1091 29.7748 58.1126 29.7506 58.1123 29.7344C58.1132 29.7251 58.1117 29.7201 58.1117 29.7146C58.1116 29.7121 58.1103 29.7115 58.1102 29.71L58.1079 29.6897C58.0881 29.5088 58.0736 29.33 58.0395 29.1451C57.9251 28.41 57.7163 27.6605 57.4926 26.9186C57.2591 26.1809 56.9985 25.4308 56.724 24.7179L57.963 24.2117Z" fill="#F4EDEC"/>
<path d="M57.3912 22.7232C57.9524 22.8939 58.6266 24.8267 58.6266 24.8267L56.4488 26.3837C56.4488 26.3837 55.6546 24.7702 55.8904 24.0447C56.1362 23.2892 56.7506 22.5286 57.3912 22.7232Z" fill="#F4F4F4"/>
<path opacity="0.4" d="M57.3912 22.7232C57.9524 22.8939 58.6266 24.8267 58.6266 24.8267L56.4488 26.3837C56.4488 26.3837 55.6546 24.7702 55.8904 24.0447C56.1362 23.2892 56.7506 22.5286 57.3912 22.7232Z" fill="black"/>
<path d="M63.6688 57.1871C63.6148 57.1871 63.5658 57.1621 63.523 57.1125C63.4865 57.0704 63.4885 57.0299 63.4966 57.0032C63.5475 56.8346 64.0267 56.697 64.0812 56.6819C64.0935 56.6784 64.1071 56.6826 64.1153 56.6929C64.1234 56.7029 64.1249 56.7171 64.1188 56.7286C64.0333 56.8909 63.8635 57.1662 63.6892 57.1861C63.6824 57.1868 63.6757 57.1871 63.6688 57.1871ZM64.0229 56.7675C63.8328 56.828 63.586 56.9333 63.5593 57.0221C63.5559 57.0332 63.5544 57.0488 63.5725 57.0698C63.6063 57.1089 63.6424 57.1255 63.6821 57.1211C63.7759 57.1104 63.901 56.9798 64.0229 56.7675Z" fill="#F4F4F4"/>
<path d="M63.8708 56.7731C63.7117 56.7731 63.5329 56.7411 63.4717 56.6614C63.4533 56.6373 63.4292 56.5868 63.4754 56.5186C63.5048 56.4753 63.5465 56.45 63.5993 56.4431C63.7971 56.418 64.0983 56.6775 64.1109 56.6886C64.1196 56.6962 64.1238 56.708 64.1215 56.7194C64.1193 56.7308 64.1111 56.7402 64.1003 56.7441C64.0479 56.7624 63.9627 56.7731 63.8708 56.7731ZM63.6284 56.5067C63.6212 56.5067 63.6142 56.5072 63.6075 56.5081C63.5736 56.5125 63.548 56.5279 63.5294 56.5554C63.5058 56.5902 63.5138 56.6091 63.5234 56.6216C63.5825 56.6982 63.8537 56.7275 64.0188 56.6977C63.9201 56.621 63.7472 56.5067 63.6284 56.5067Z" fill="#F4F4F4"/>
<path d="M51.2671 62.225C51.13 62.225 51.0035 62.2038 50.9326 62.14C50.8876 62.0996 50.8677 62.046 50.8735 61.9809C50.8771 61.942 50.8961 61.9119 50.9289 61.8939C51.098 61.8012 51.6479 62.0822 51.71 62.1145C51.7224 62.1209 51.7292 62.1344 51.7273 62.1481C51.7253 62.1618 51.7149 62.1728 51.7013 62.1756C51.5842 62.1989 51.4191 62.225 51.2671 62.225ZM51.0214 61.9395C50.996 61.9395 50.9755 61.9432 50.9603 61.9514C50.9469 61.9588 50.9402 61.9698 50.9387 61.9868C50.9347 62.0309 50.9471 62.0653 50.9764 62.0915C51.0601 62.1669 51.2871 62.1801 51.5927 62.1292C51.4034 62.0383 51.152 61.9395 51.0214 61.9395Z" fill="#F4F4F4"/>
<path d="M51.6949 62.1762C51.6903 62.1762 51.6857 62.1753 51.6815 62.1733C51.517 62.099 51.1918 61.8016 51.2172 61.6453C51.2233 61.6084 51.2494 61.5623 51.3399 61.5532C51.4073 61.5469 51.4677 61.5654 51.5208 61.6095C51.6941 61.754 51.726 62.1253 51.7274 62.141C51.7283 62.1526 51.7231 62.1637 51.7137 62.1703C51.7082 62.1742 51.7015 62.1762 51.6949 62.1762ZM51.3663 61.6171C51.3597 61.6171 51.3532 61.6174 51.3466 61.6182C51.287 61.6243 51.283 61.6481 51.2818 61.6559C51.2665 61.7497 51.4873 61.9837 51.6548 62.0853C51.6388 61.9771 51.5928 61.7544 51.479 61.6598C51.4448 61.6311 51.4078 61.6171 51.3663 61.6171Z" fill="#F4F4F4"/>
<path d="M56.4815 30.7601L56.6247 31.2616C56.6444 31.3005 56.5983 31.3401 56.5335 31.3401H50.7673C50.7168 31.3401 50.675 31.3154 50.6718 31.2837L50.6213 30.7822C50.6178 30.7475 50.6616 30.718 50.7168 30.718H56.3902C56.4319 30.718 56.4688 30.735 56.4815 30.7601Z" fill="#F4F4F4"/>
<path opacity="0.3" d="M56.4815 30.7601L56.6247 31.2616C56.6444 31.3005 56.5983 31.3401 56.5335 31.3401H50.7673C50.7168 31.3401 50.675 31.3154 50.6718 31.2837L50.6213 30.7822C50.6178 30.7475 50.6616 30.718 50.7168 30.718H56.3902C56.4319 30.718 56.4688 30.735 56.4815 30.7601Z" fill="white"/>
<path d="M55.7195 31.3949H55.8714C55.9016 31.3949 55.9246 31.3793 55.9227 31.3603L55.8514 30.7087C55.8493 30.6896 55.8229 30.6741 55.7927 30.6741H55.6407C55.6105 30.6741 55.5875 30.6896 55.5895 30.7087L55.6607 31.3603C55.6627 31.3793 55.6892 31.3949 55.7195 31.3949Z" fill="#A7A7A7"/>
<path d="M51.195 31.3949H51.347C51.3772 31.3949 51.4002 31.3793 51.3982 31.3603L51.327 30.7087C51.3249 30.6896 51.2985 30.6741 51.2683 30.6741H51.1163C51.0861 30.6741 51.0631 30.6896 51.0651 30.7087L51.1363 31.3603C51.1383 31.3793 51.1648 31.3949 51.195 31.3949Z" fill="#A7A7A7"/>
<path d="M53.4572 31.3949H53.6092C53.6394 31.3949 53.6626 31.3793 53.6605 31.3603L53.5892 30.7087C53.5871 30.6896 53.5607 30.6741 53.5305 30.6741H53.3785C53.3483 30.6741 53.3253 30.6896 53.3273 30.7087L53.3985 31.3603C53.4005 31.3793 53.427 31.3949 53.4572 31.3949Z" fill="#A7A7A7"/>
<path d="M52.772 18.0228L52.4995 17.9717C52.4995 17.9717 52.6554 18.1659 52.772 18.0228Z" fill="#A7A7A7"/>
<path opacity="0.2" d="M47.7227 37.4503C40.5063 40.2547 32.3811 36.6789 29.576 29.4608C26.771 22.2428 30.349 14.1186 37.5655 11.3142C44.7835 8.50896 52.9086 12.0849 55.7138 19.303C58.5189 26.5211 54.9408 34.645 47.7227 37.4503Z" fill="#8D8D8D"/>
<path opacity="0.1" d="M45.1854 10.593L34.1897 35.5678C34.0196 35.4395 33.8527 35.3068 33.6883 35.1715C32.6397 34.3042 31.7123 33.2779 30.943 32.108L30.9424 32.1066L40.4397 10.5353C42.0377 10.2781 43.6415 10.3069 45.1854 10.593Z" fill="white"/>
<path opacity="0.1" d="M53.0025 14.9262L42.6642 38.4055C40.4982 38.409 38.3795 37.9067 36.4702 36.9689L47.759 11.3286C49.7398 12.1033 51.5412 13.327 53.0025 14.9262Z" fill="white"/>
<path d="M31.1036 14.9369C36.3198 8.56309 45.7161 7.62456 52.09 12.8406C58.4638 18.0567 59.4023 27.4532 54.1862 33.827C48.9693 40.2019 39.5728 41.1404 33.199 35.9244C26.8251 30.7081 25.8866 21.3118 31.1036 14.9369ZM53.2428 33.0548C58.0322 27.2025 57.1716 18.5745 51.318 13.784C45.4644 8.9936 36.8367 9.85662 32.0473 15.7089C27.2569 21.5625 28.1174 30.1905 33.9711 34.9809C39.8247 39.7715 48.4524 38.9084 53.2428 33.0548Z" fill="#8D8D8D"/>
<path d="M54.5586 33.0016C56.0276 33.8788 57.425 34.8435 58.7982 35.8377C60.171 36.8323 61.5093 37.8693 62.8266 38.9317C64.1442 39.9938 65.4347 41.0892 66.6811 42.2381C67.3057 42.8111 67.9163 43.4008 68.5159 44.0044C69.1136 44.6102 69.7023 45.2268 70.2555 45.8869C70.5603 46.2506 70.5126 46.7923 70.1489 47.0972C69.8709 47.3301 69.4871 47.3559 69.1864 47.1933C68.4299 46.7815 67.709 46.3264 66.9969 45.8604C66.2866 45.3922 65.5877 44.9101 64.9026 44.4112C63.5297 43.4166 62.2008 42.3683 60.899 41.2869C59.5971 40.2055 58.3159 39.099 57.0694 37.95C55.8233 36.8006 54.6013 35.6215 53.4509 34.3551C53.1226 33.9937 53.1494 33.4347 53.5108 33.1064C53.8059 32.8386 54.2333 32.8079 54.5586 33.0016Z" fill="#8D8D8D"/>
<path d="M56.2 32.5872L54.7266 32.8113L55.7816 33.7358C55.7816 33.7358 56.6143 33.4337 56.6964 32.866L56.2 32.5872Z" fill="#F4EDEC"/>
<path d="M53.9312 33.6557L54.8564 34.3819L55.987 33.644L54.7267 32.8118L53.9312 33.6557Z" fill="#F4EDEC"/>
<path d="M46.9632 35.2616C47.2269 34.5181 47.9677 33.9912 48.7495 33.9912H60.9615C61.8881 33.9912 62.5519 34.7242 62.4442 35.6286L59.2904 62.1049C59.1827 63.0093 58.3442 63.7423 57.4176 63.7423H18.6646C17.7379 63.7423 17.0742 63.0093 17.1819 62.1049L19.831 39.8657C19.9387 38.9614 20.7772 38.2283 21.7038 38.2283H42.7912C44.6168 38.2283 46.3471 36.998 46.9632 35.2616Z" fill="#8D8D8D"/>
<path d="M17.8843 62.5231H58.3732L60.6804 35.2793H20.1914L17.8843 62.5231Z" fill="#F0F0F0"/>
<path d="M17.8843 62.5231H58.3732L60.0427 35.2793H20.1914L17.8843 62.5231Z" fill="#E0E0E0"/>
<path d="M17.8843 62.5234H58.3732L59.765 34.415H19.2761L17.8843 62.5234Z" fill="#F0F0F0"/>
<path d="M17.8843 62.5234H58.3732L58.924 34.415H19.2761L17.8843 62.5234Z" fill="#E0E0E0"/>
<path d="M17.8843 62.5235H58.3732L58.6144 33.6523H18.1255L17.8843 62.5235Z" fill="#F0F0F0"/>
<path d="M17.8847 62.5233H58.3737L57.5429 34.1987H17.3145L17.8847 62.5233Z" fill="#E0E0E0"/>
<path d="M17.8848 62.5234H58.3738L57.1721 34.415H16.6831L17.8848 62.5234Z" fill="#F0F0F0"/>
<path d="M17.8849 62.5234H58.3738L56.4602 34.8389H15.9712L17.8849 62.5234Z" fill="#E0E0E0"/>
<path d="M17.8848 62.5235H58.3738L56.155 35.0762H15.666L17.8848 62.5235Z" fill="#F0F0F0"/>
<path d="M38.1604 36.9806C38.1869 36.2189 38.7596 35.679 39.5412 35.679H51.7532C52.6798 35.679 53.5777 36.4301 53.7586 37.3566L58.583 62.0643C58.764 62.991 58.1595 63.742 57.2329 63.742H18.4799C17.5533 63.742 16.6555 62.9908 16.4745 62.0643L12.4978 41.6981C12.3169 40.7715 12.9213 40.0204 13.848 40.0204H34.9353C36.7608 40.0204 38.0984 38.7597 38.1604 36.9806Z" fill="#F2F2F2"/>
<path opacity="0.2" d="M38.1604 36.9806C38.1869 36.2189 38.7596 35.679 39.5412 35.679H51.7532C52.6798 35.679 53.5777 36.4301 53.7586 37.3566L58.583 62.0643C58.764 62.991 58.1595 63.742 57.2329 63.742H18.4799C17.5533 63.742 16.6555 62.9908 16.4745 62.0643L12.4978 41.6981C12.3169 40.7715 12.9213 40.0204 13.848 40.0204H34.9353C36.7608 40.0204 38.0984 38.7597 38.1604 36.9806Z" fill="black"/>
</g>
<defs>
<clipPath id="clip0_958_1481">
<rect width="76.2786" height="76.2786" fill="white" transform="translate(0 0.242676)"/>
</clipPath>
</defs>
</svg>
