<svg width="33" height="33" viewBox="0 0 33 33" fill="none" xmlns="http://www.w3.org/2000/svg">
<path fill-rule="evenodd" clip-rule="evenodd" d="M4.87338 10.47V23.2915C4.87338 24.7078 6.02146 25.8558 7.43769 25.8558H25.3879C26.8041 25.8558 27.9522 24.7078 27.9522 23.2915V10.47C27.9522 9.05372 26.8041 7.90564 25.3879 7.90564H7.43769C6.02146 7.90564 4.87338 9.05372 4.87338 10.47Z" stroke="#1E1E1E" stroke-width="1.02573" stroke-linecap="round" stroke-linejoin="round"/>
<path d="M20.2593 14.3163H24.1058" stroke="#1E1E1E" stroke-width="1.02573" stroke-linecap="round"/>
<path d="M20.2593 18.1627H24.1058" stroke="#1E1E1E" stroke-width="1.02573" stroke-linecap="round"/>
<path fill-rule="evenodd" clip-rule="evenodd" d="M15.1307 14.3164C15.1307 15.7327 13.9826 16.8807 12.5664 16.8807C11.1501 16.8807 10.002 15.7327 10.002 14.3164C10.002 12.9002 11.1501 11.7521 12.5664 11.7521C13.2464 11.7521 13.8986 12.0222 14.3796 12.5031C14.8605 12.984 15.1307 13.6363 15.1307 14.3164Z" stroke="#1E1E1E" stroke-width="1.02573" stroke-linecap="round" stroke-linejoin="round"/>
<path d="M7.43776 22.0092C11.006 17.9871 15.1974 19.2513 17.695 22.0092" stroke="#1E1E1E" stroke-width="1.02573" stroke-linecap="round"/>
</svg>
