<svg width="23" height="24" viewBox="0 0 23 24" fill="none" xmlns="http://www.w3.org/2000/svg">
<path d="M5.58333 9.45833H17.0417M5.58333 14.0417H11.3125M5.58333 1.4375V3.72917M17.0417 1.4375V3.72917M4.66667 22.0625H17.9583C19.2418 22.0625 19.8836 22.0625 20.3738 21.8127C20.8049 21.5931 21.1556 21.2424 21.3752 20.8113C21.625 20.3211 21.625 19.6793 21.625 18.3958V7.39583C21.625 6.11237 21.625 5.47065 21.3752 4.98044C21.1556 4.54923 20.8049 4.19865 20.3738 3.97895C19.8836 3.72917 19.2418 3.72917 17.9583 3.72917H4.66667C3.38322 3.72917 2.74148 3.72917 2.25127 3.97895C1.82006 4.19865 1.46948 4.54923 1.24978 4.98044C1 5.47065 1 6.11237 1 7.39583V18.3958C1 19.6793 1 20.3211 1.24978 20.8113C1.46948 21.2424 1.82006 21.5931 2.25127 21.8127C2.74148 22.0625 3.38321 22.0625 4.66667 22.0625Z" stroke="#868686" stroke-width="2" stroke-linecap="round" stroke-linejoin="round"/>
</svg>
