<svg width="30" height="26" viewBox="0 0 30 26" fill="none" xmlns="http://www.w3.org/2000/svg">
<path d="M16.1751 12.7467L21.4251 7.50507C21.582 7.34815 21.6702 7.13532 21.6702 6.9134C21.6702 6.69149 21.582 6.47866 21.4251 6.32174C21.2682 6.16482 21.0554 6.07666 20.8334 6.07666C20.6115 6.07666 20.3987 6.16482 20.2418 6.32174L15.0001 11.5717L9.75845 6.32174C9.60153 6.16482 9.3887 6.07666 9.16678 6.07666C8.94486 6.07666 8.73203 6.16482 8.57511 6.32174C8.41819 6.47866 8.33004 6.69149 8.33004 6.9134C8.33004 7.13532 8.41819 7.34815 8.57511 7.50507L13.8251 12.7467L8.57511 17.9884C8.497 18.0659 8.43501 18.158 8.3927 18.2596C8.3504 18.3611 8.32861 18.4701 8.32861 18.5801C8.32861 18.6901 8.3504 18.799 8.3927 18.9005C8.43501 19.0021 8.497 19.0943 8.57511 19.1717C8.65258 19.2498 8.74475 19.3118 8.8463 19.3541C8.94785 19.3965 9.05677 19.4182 9.16678 19.4182C9.27679 19.4182 9.38571 19.3965 9.48726 19.3541C9.58881 19.3118 9.68098 19.2498 9.75845 19.1717L15.0001 13.9217L20.2418 19.1717C20.3192 19.2498 20.4114 19.3118 20.513 19.3541C20.6145 19.3965 20.7234 19.4182 20.8334 19.4182C20.9435 19.4182 21.0524 19.3965 21.1539 19.3541C21.2555 19.3118 21.3476 19.2498 21.4251 19.1717C21.5032 19.0943 21.5652 19.0021 21.6075 18.9005C21.6498 18.799 21.6716 18.6901 21.6716 18.5801C21.6716 18.4701 21.6498 18.3611 21.6075 18.2596C21.5652 18.158 21.5032 18.0659 21.4251 17.9884L16.1751 12.7467Z" fill="black"/>
</svg>
