<svg width="32" height="32" viewBox="0 0 32 32" fill="none" xmlns="http://www.w3.org/2000/svg">
<path d="M27.3111 11.6813V8.47593C27.3111 7.0597 26.1631 5.91162 24.7468 5.91162H6.79664C5.38041 5.91162 4.23233 7.0597 4.23233 8.47593V14.8867C4.23233 16.303 5.38041 17.451 6.79664 17.451H14.3293M24.7468 18.7332V16.1689C24.7468 14.7526 23.5988 13.6046 22.1825 13.6046C20.7662 13.6046 19.6182 14.7526 19.6182 16.1689V18.7332M18.336 26.4261H26.029C26.7371 26.4261 27.3111 25.8521 27.3111 25.144V20.0153C27.3111 19.3072 26.7371 18.7332 26.029 18.7332H18.336C17.6279 18.7332 17.0539 19.3072 17.0539 20.0153V25.144C17.0539 25.8521 17.6279 26.4261 18.336 26.4261Z" stroke="black" stroke-width="1.02573" stroke-linecap="round" stroke-linejoin="round"/>
<path d="M10.6431 12.3225C11.3512 12.3225 11.9253 11.7485 11.9253 11.0403C11.9253 10.3322 11.3512 9.75818 10.6431 9.75818C9.93502 9.75818 9.36098 10.3322 9.36098 11.0403C9.36098 11.7485 9.93502 12.3225 10.6431 12.3225Z" fill="black"/>
<path d="M16.4128 12.3225C17.1209 12.3225 17.695 11.7485 17.695 11.0403C17.695 10.3322 17.1209 9.75818 16.4128 9.75818C15.7047 9.75818 15.1307 10.3322 15.1307 11.0403C15.1307 11.7485 15.7047 12.3225 16.4128 12.3225Z" fill="black"/>
</svg>
