<svg width="37" height="37" viewBox="0 0 37 37" fill="none" xmlns="http://www.w3.org/2000/svg">
<circle cx="18.5181" cy="18.1877" r="18" fill="#7E7E7E" fill-opacity="0.2"/>
<path d="M18.1789 17.8484C18.9425 17.8484 19.6749 17.545 20.2149 17.005C20.7549 16.465 21.0583 15.7326 21.0583 14.9689C21.0583 14.2052 20.7549 13.4728 20.2149 12.9328C19.6749 12.3928 18.9425 12.0894 18.1789 12.0894C17.4152 12.0894 16.6828 12.3928 16.1428 12.9328C15.6028 13.4728 15.2994 14.2052 15.2994 14.9689C15.2994 15.7326 15.6028 16.465 16.1428 17.005C16.6828 17.545 17.4152 17.8484 18.1789 17.8484ZM20.0985 14.9689C20.0985 15.478 19.8962 15.9663 19.5362 16.3263C19.1762 16.6863 18.688 16.8886 18.1789 16.8886C17.6697 16.8886 17.1815 16.6863 16.8215 16.3263C16.4615 15.9663 16.2592 15.478 16.2592 14.9689C16.2592 14.4598 16.4615 13.9715 16.8215 13.6115C17.1815 13.2515 17.6697 13.0493 18.1789 13.0493C18.688 13.0493 19.1762 13.2515 19.5362 13.6115C19.8962 13.9715 20.0985 14.4598 20.0985 14.9689ZM23.9378 22.6475C23.9378 23.6073 22.978 23.6073 22.978 23.6073H13.3797C13.3797 23.6073 12.4199 23.6073 12.4199 22.6475C12.4199 21.6877 13.3797 18.8082 18.1789 18.8082C22.978 18.8082 23.9378 21.6877 23.9378 22.6475ZM22.978 22.6436C22.977 22.4075 22.8301 21.6973 22.1794 21.0465C21.5536 20.4207 20.3759 19.768 18.1789 19.768C15.9818 19.768 14.8041 20.4207 14.1783 21.0465C13.5276 21.6973 13.3817 22.4075 13.3797 22.6436H22.978Z" fill="#848484"/>
</svg>
