<svg width="586" height="477" viewBox="0 0 586 477" fill="none" xmlns="http://www.w3.org/2000/svg">
<path opacity="0.7" d="M558.123 274.834C542.312 313.852 508.248 356.615 458.119 370.536C382.376 391.576 375.609 442.152 238.14 441.807C216.706 441.754 196.811 439.927 178.455 436.588C168.588 434.795 159.162 432.553 150.193 429.909C68.7572 405.992 24.1698 349.114 17.8071 288.335C9.42327 208.395 76.2412 168.065 119.783 144.311C163.326 120.558 212.974 32.262 348.119 31.7373C368.724 31.6648 389.363 33.3085 409.466 37.073C455.355 45.6504 502.571 66.3322 530.934 97.8447C533.063 100.213 535.102 102.64 537.062 105.116C575.318 153.578 579.685 221.64 558.123 274.834Z" fill="#E3EFFD"/>
<path d="M563.948 439.511H18.6355" stroke="#263238" stroke-width="2.44115" stroke-miterlimit="10"/>
<path d="M42.0354 403.75C42.0354 403.75 59.2543 158.597 576.261 136.31" stroke="#263238" stroke-width="2.44115" stroke-miterlimit="10" stroke-linecap="round" stroke-linejoin="round" stroke-dasharray="12.21 12.21"/>
<path d="M515.333 119.775C535.013 132.842 545.344 153.224 550.528 172.987C561.283 213.995 556.246 258.15 531.266 295.224C504.893 334.367 458.318 362.56 408.285 379.312C302.217 414.825 167.198 391.541 106.968 307.277C106.315 306.36 105.67 305.439 105.033 304.516C99.1957 296.017 93.8033 286.84 91.4856 277.219" stroke="#263238" stroke-width="2.44115" stroke-miterlimit="10" stroke-linecap="round" stroke-linejoin="round" stroke-dasharray="12.21 12.21"/>
<path d="M344.952 299.075H43.5129C39.0953 299.075 35.9606 296.201 35.9606 293.153V49.8942C35.9606 46.846 39.0953 43.9722 43.5129 43.9722H344.952C349.369 43.9722 352.504 46.846 352.504 49.8942V293.153C352.503 296.201 349.369 299.075 344.952 299.075Z" fill="#345782" stroke="#345782" stroke-width="2.44115"/>
<path d="M352.636 294.299H51.1984C46.3532 294.299 42.4255 291.102 42.4255 287.157V43.8983C42.4255 39.9535 46.3532 36.7557 51.1984 36.7557H352.637C357.482 36.7557 361.41 39.9535 361.41 43.8983V287.157C361.409 291.102 357.481 294.299 352.636 294.299Z" fill="#E3EFFD" stroke="#345782" stroke-width="2.44115" stroke-miterlimit="10"/>
<path d="M281.578 217.462H122.459C114.502 217.462 108.052 212.211 108.052 205.732V201.304C108.052 194.826 114.502 189.574 122.459 189.574H281.578C289.536 189.574 295.986 194.826 295.986 201.304V205.732C295.986 212.211 289.536 217.462 281.578 217.462Z" fill="white" stroke="#345782" stroke-width="2.44115" stroke-miterlimit="10"/>
<path d="M251.459 261.283H152.578C145.048 261.283 139.391 256.355 139.391 250.773V246.346C139.391 240.764 145.048 235.836 152.578 235.836H251.459C258.988 235.836 264.646 240.764 264.646 246.346V250.773C264.647 256.355 258.989 261.283 251.459 261.283Z" fill="#345782" stroke="#345782" stroke-width="2.44115"/>
<path d="M361.409 57.2982V44.9105C361.409 40.4067 356.924 36.7557 351.393 36.7557H52.4417C46.9098 36.7557 42.4255 40.4067 42.4255 44.9105V57.2973L361.409 57.2982Z" fill="#345782" stroke="#345782" stroke-width="2.44115" stroke-miterlimit="10"/>
<path d="M315.199 52.0778C317.754 52.0778 319.826 50.3911 319.826 48.3104C319.826 46.2298 317.754 44.5431 315.199 44.5431C312.643 44.5431 310.571 46.2298 310.571 48.3104C310.571 50.3911 312.643 52.0778 315.199 52.0778Z" fill="white" stroke="#345782" stroke-width="2.44115" stroke-miterlimit="10"/>
<path d="M330.816 52.0778C333.371 52.0778 335.443 50.3911 335.443 48.3104C335.443 46.2298 333.371 44.5431 330.816 44.5431C328.26 44.5431 326.188 46.2298 326.188 48.3104C326.188 50.3911 328.26 52.0778 330.816 52.0778Z" fill="white" stroke="#345782" stroke-width="2.44115" stroke-miterlimit="10"/>
<path d="M351.06 48.3104C351.06 46.2298 348.988 44.5431 346.433 44.5431C343.877 44.5431 341.805 46.2298 341.805 48.3104C341.805 50.3911 343.877 52.0778 346.433 52.0778C348.988 52.0778 351.06 50.3911 351.06 48.3104Z" fill="white" stroke="#345782" stroke-width="2.44115" stroke-miterlimit="10"/>
<path d="M241.024 121.866C241.024 131.923 235.245 140.891 226.21 146.649C219.638 150.879 211.314 153.393 202.301 153.393C193.267 153.393 184.942 150.879 178.37 146.649C169.336 140.891 163.557 131.923 163.557 121.866C163.557 104.439 180.894 90.3224 202.301 90.3224C223.686 90.3224 241.024 104.438 241.024 121.866Z" fill="#345782" stroke="#345782" stroke-width="2.44115" stroke-miterlimit="10"/>
<path d="M218.468 116.924C218.468 109.651 211.226 103.756 202.294 103.756C193.362 103.756 186.12 109.651 186.12 116.924C186.12 124.196 193.362 130.092 202.294 130.092C211.226 130.092 218.468 124.196 218.468 116.924Z" fill="white" stroke="#345782" stroke-width="2.44115" stroke-miterlimit="10"/>
<path d="M226.21 146.649C219.638 150.879 211.314 153.393 202.301 153.393C193.267 153.393 184.943 150.879 178.37 146.649C180.77 137.698 190.575 130.988 202.301 130.988C214.005 130.988 223.812 137.697 226.21 146.649Z" fill="white" stroke="#345782" stroke-width="2.44115" stroke-miterlimit="10"/>
<path d="M474.629 87.0764L521.18 94.9269L508.662 106.594L474.629 87.0764Z" fill="white" stroke="#263238" stroke-width="2.44115" stroke-miterlimit="10"/>
<path d="M474.629 87.0764L490.248 122.736L504.012 110.253L474.629 87.0764Z" fill="white" stroke="#263238" stroke-width="2.44115" stroke-miterlimit="10"/>
<path d="M508.662 106.594L507.601 115.57L504.012 110.253L474.629 87.0764L508.662 106.594Z" fill="white" stroke="#263238" stroke-width="2.44115" stroke-miterlimit="10"/>
<path d="M507.601 115.57L501.547 112.771L504.012 110.253L507.601 115.57Z" fill="white" stroke="#263238" stroke-width="2.44115" stroke-miterlimit="10"/>
<path d="M401.484 327.684V235.95C401.484 213.706 423.711 195.609 451.034 195.609C478.354 195.609 500.582 213.705 500.582 235.95V327.684H521.034V235.95C521.034 204.524 489.632 178.958 451.034 178.958H451.033C412.435 178.958 381.032 204.524 381.032 235.95V327.684H401.484Z" fill="#263238"/>
<path d="M537.691 287.772H370.843V439.511H537.691V287.772Z" fill="#B2B2B2"/>
<path d="M537.691 300.68L370.843 436.522V439.51H387.525L537.691 317.251V300.68Z" fill="white"/>
<path d="M370.843 325.561V375.151L478.164 287.772H417.256L370.843 325.561Z" fill="white"/>
<path d="M537.691 287.772H370.843V439.511H537.691V287.772Z" stroke="#263238" stroke-width="2.44115" stroke-miterlimit="10"/>
<path d="M537.69 287.772H502.573V439.511H537.69V287.772Z" fill="#263238" stroke="#263238" stroke-width="2.44115" stroke-miterlimit="10"/>
<path d="M441.248 347.813C441.248 342.555 436.013 338.292 429.554 338.292C423.096 338.292 417.86 342.555 417.86 347.813C417.86 351.75 420.796 355.128 424.982 356.579L422.836 377.253H436.274L434.128 356.579C438.313 355.128 441.248 351.75 441.248 347.813Z" fill="#263238" stroke="#263238" stroke-width="2.44115" stroke-miterlimit="10"/>
<path d="M109.132 349.493L100.058 387.976L85.5331 423.162L81.9452 428.66C81.9452 428.66 77.9354 433.47 77.5136 437.078C77.0918 440.686 81.3124 442.747 84.4773 441.544C87.6422 440.341 89.3307 435.36 89.9635 433.126C90.5962 430.893 91.8629 426.942 92.2847 425.567C92.7065 424.192 93.5514 423.162 93.5514 423.162C93.5514 423.162 118.627 389.179 118.627 388.148C118.627 387.118 130.444 362.034 130.444 362.034L132.765 362.206L139.729 390.21L120.315 423.024C120.315 423.024 114.196 428.865 114.618 429.552C115.04 430.239 118.417 432.988 119.683 433.675C120.948 434.362 125.591 440.375 128.968 441.063C132.343 441.75 133.61 442.437 132.977 440.204C132.345 437.971 130.445 434.535 130.023 433.504C129.601 432.473 128.765 425.288 128.765 425.288L157.877 393.99L154.078 355.334L109.132 349.493Z" fill="white" stroke="#263238" stroke-width="2.44115" stroke-miterlimit="10" stroke-linecap="round" stroke-linejoin="round"/>
<path d="M122.286 433.529C120.859 432.657 117.558 429.878 115.467 428.079C114.876 428.8 114.505 429.367 114.618 429.553C115.04 430.24 118.416 432.989 119.683 433.676C120.948 434.363 125.591 440.376 128.968 441.064C131.223 441.523 132.532 441.977 132.967 441.566C126.118 440.101 124.106 434.64 122.286 433.529Z" fill="white" stroke="#263238" stroke-width="2.44115" stroke-miterlimit="10" stroke-linecap="round" stroke-linejoin="round"/>
<path d="M88.4098 437.253C86.2057 439.056 83.6255 440.418 80.8871 439.749C77.666 438.962 78.437 435.014 79.2971 432.493C78.4511 433.953 77.6859 435.613 77.5148 437.078C77.093 440.686 81.3137 442.747 84.4786 441.544C86.2081 440.887 87.4935 439.102 88.4098 437.253Z" fill="white" stroke="#263238" stroke-width="2.44115" stroke-miterlimit="10" stroke-linecap="round" stroke-linejoin="round"/>
<path d="M109.132 349.493L100.059 387.976L85.5343 423.162C85.5343 423.162 86.8314 426.934 92.5531 424.863C92.9901 423.858 93.5538 423.162 93.5538 423.162C93.5538 423.162 118.629 389.179 118.629 388.148C118.629 387.118 130.446 362.034 130.446 362.034L132.768 362.206L139.731 390.21L120.318 423.024C120.318 423.024 122.843 426.485 128.842 425.206L157.878 393.99L154.079 355.334L109.132 349.493Z" fill="#263238" stroke="#263238" stroke-width="2.44115" stroke-miterlimit="10" stroke-linecap="round" stroke-linejoin="round"/>
<path d="M144.771 295.839L139.506 296.629L115.398 353.71C115.398 353.71 119.97 360.253 134.796 360.14C149.622 360.027 153.916 358.109 153.916 358.109L153.501 323.589L159.585 300.746C159.585 300.746 150.175 296.066 144.771 295.839Z" fill="white" stroke="#263238" stroke-width="2.44115" stroke-miterlimit="10"/>
<path d="M171.93 280.16C171.93 280.16 171.93 285.403 171.597 286.126C171.264 286.849 169.598 287.844 169.598 288.477C169.598 289.11 171.486 291.64 171.153 292.274C170.82 292.906 167.489 293.63 167.489 293.63C167.489 293.63 164.713 298.059 163.381 298.511C162.048 298.963 156.831 296.794 156.831 296.794L153.833 304.297C153.833 304.297 152.501 306.376 147.505 305.743C142.508 305.111 140.732 303.574 140.511 302.58C140.289 301.586 139.734 301.314 140.399 300.229C141.066 299.145 142.064 296.794 142.064 296.794L148.393 285.947L149.392 280.976C149.392 280.976 151.613 277.451 159.829 276.728C168.044 276.002 171.93 280.16 171.93 280.16Z" fill="white" stroke="#263238" stroke-width="2.44115" stroke-miterlimit="10"/>
<path d="M163.381 291.73C163.381 291.73 163.603 293.358 166.157 293.9" stroke="#263238" stroke-width="2.44115" stroke-miterlimit="10" stroke-linecap="round" stroke-linejoin="round"/>
<path d="M169.377 285.674C169.377 285.674 167.933 284.228 166.045 284.68" stroke="#263238" stroke-width="2.44115" stroke-miterlimit="10" stroke-linecap="round" stroke-linejoin="round"/>
<path d="M167.696 287.827C167.578 288.292 167.165 288.615 166.775 288.549C166.385 288.483 166.165 288.053 166.283 287.588C166.401 287.123 166.814 286.801 167.204 286.867C167.594 286.934 167.815 287.363 167.696 287.827Z" fill="#263238"/>
<path d="M156.831 296.793L153.611 294.443L155.942 299.324L156.831 296.793Z" fill="#263238" stroke="#263238" stroke-width="2.44115" stroke-miterlimit="10" stroke-linecap="round" stroke-linejoin="round"/>
<path d="M154.61 284.499C154.61 284.499 159.162 283.233 160.383 282.6C161.604 281.968 159.939 279.888 160.939 279.165C161.938 278.442 166.268 278.08 168.6 278.713C170.931 279.345 171.043 280.792 173.263 280.521C175.484 280.25 178.26 278.804 177.039 276.273C175.818 273.742 172.154 271.572 169.156 271.301C166.159 271.03 163.05 271.663 159.164 271.301C155.278 270.94 151.28 269.764 149.171 273.2C147.062 276.635 145.285 280.341 146.062 282.149C146.839 283.957 147.173 286.217 148.061 286.579C148.947 286.94 154.61 284.499 154.61 284.499Z" fill="#263238" stroke="#263238" stroke-width="2.44115" stroke-miterlimit="10"/>
<path d="M155.164 285.765C155.164 285.765 154.72 281.426 152.388 282.24C150.057 283.054 150.279 287.211 151.723 288.025C153.166 288.839 154.387 287.573 154.387 287.573" fill="white"/>
<path d="M155.164 285.765C155.164 285.765 154.72 281.426 152.388 282.24C150.057 283.054 150.279 287.211 151.723 288.025C153.166 288.839 154.387 287.573 154.387 287.573" stroke="#263238" stroke-width="2.44115" stroke-miterlimit="10"/>
<path d="M138.844 304.657L116.638 363.323C116.638 363.323 110.865 359.617 107.645 357.086C104.425 354.555 103.648 353.832 103.648 353.832L111.642 339.459L113.086 334.849L89.6588 347.504L85.662 341.086L105.536 326.623C105.536 326.623 117.749 299.052 118.526 298.691C119.303 298.329 141.509 295.889 141.509 295.889L138.844 304.657Z" fill="#B2B2B2" stroke="#263238" stroke-width="2.44115" stroke-miterlimit="10"/>
<path d="M143.618 294.352C143.618 294.352 140.287 293.629 138.622 294.985C136.957 296.34 130.849 303.482 132.404 304.205C133.959 304.928 138.177 303.03 138.177 303.03L138.843 304.657L143.618 294.352Z" fill="white" stroke="#263238" stroke-width="2.44115" stroke-miterlimit="10"/>
<path d="M120.303 307.821L113.086 334.849" stroke="#263238" stroke-width="2.44115" stroke-miterlimit="10" stroke-linecap="round" stroke-linejoin="round"/>
<path d="M132.183 315.143L120.968 314.058L120.302 317.041L131.627 318.668L132.183 317.041" stroke="#263238" stroke-width="2.44115" stroke-miterlimit="10" stroke-linecap="round" stroke-linejoin="round"/>
<path d="M119.348 311.165C119.348 311.165 118.161 305.794 117.897 302.895" stroke="#263238" stroke-width="2.44115" stroke-miterlimit="10" stroke-linecap="round" stroke-linejoin="round"/>
<path d="M118.688 312.347C118.688 312.347 116.709 309.662 115.389 307.944" stroke="#263238" stroke-width="2.44115" stroke-miterlimit="10" stroke-linecap="round" stroke-linejoin="round"/>
<path d="M153.832 304.295C153.832 304.295 148.371 322.98 148.503 328.673C148.635 334.366 150.482 364.548 150.482 364.548C150.482 364.548 157.606 363.474 158.793 363.152C159.98 362.829 164.598 361.648 164.598 361.648C164.598 361.648 156.551 340.381 156.551 339.629C156.551 338.877 158.001 333.828 158.001 333.828C158.001 333.828 162.75 342.529 163.41 343.173C164.07 343.818 182.241 350.487 182.241 350.487L183.858 342.636L172.381 334.043C172.381 334.043 169.875 317.824 169.875 316.535C169.875 315.246 170.534 307.083 170.534 307.083L156.155 297.845L153.832 304.295Z" fill="#B2B2B2" stroke="#263238" stroke-width="2.44115" stroke-miterlimit="10"/>
<path d="M197.813 347.845C197.813 347.845 192.057 348.866 190.581 348.987C189.104 349.107 186.3 348.866 185.046 348.506C183.791 348.145 181.357 347.364 181.357 347.364C181.357 347.364 180.84 346.163 181.209 345.502C181.578 344.84 183.57 344.901 183.57 344.901L196.041 345.922L197.813 347.845Z" fill="white" stroke="#263238" stroke-width="2.44115" stroke-miterlimit="10"/>
<path d="M164.467 314.71L158.002 333.829" stroke="#263238" stroke-width="2.44115" stroke-miterlimit="10" stroke-linecap="round" stroke-linejoin="round"/>
<path d="M160.905 319.759L153.121 318.148L152.725 320.725L159.585 322.229" stroke="#263238" stroke-width="2.44115" stroke-miterlimit="10" stroke-linecap="round" stroke-linejoin="round"/>
<path d="M161.959 322.874L165.918 318.254" stroke="#263238" stroke-width="2.44115" stroke-miterlimit="10" stroke-linecap="round" stroke-linejoin="round"/>
<path d="M153.253 307.299L154.704 306.118C154.704 306.118 158.002 309.233 158.662 308.266C159.322 307.3 160.641 304.829 159.585 300.748C158.53 296.667 156.831 296.793 156.831 296.793L153.833 304.297L153.253 307.299Z" fill="white" stroke="#263238" stroke-width="2.44115" stroke-miterlimit="10"/>
<path d="M227.252 350.63L220.322 388.772L204.423 425.912C204.423 425.912 198.933 430.69 197.419 436.084C195.906 441.478 200.259 441.786 202.531 440.399C204.801 439.011 210.291 427.146 210.481 426.528C210.671 425.912 234.331 393.087 234.709 392.624C235.088 392.161 246.445 365.193 246.445 365.193L254.774 391.7L271.999 430.227C271.999 430.227 273.134 436.854 275.974 439.473C278.813 442.093 282.977 443.943 283.734 441.631C284.491 439.32 283.923 435.313 281.842 433.463C279.759 431.613 276.542 427.761 276.542 427.761L270.485 388.001L266.733 350.812L227.252 350.63Z" fill="white" stroke="#263238" stroke-width="2.44115" stroke-miterlimit="10"/>
<path d="M270.476 388.001L266.724 350.812L227.246 350.63L220.316 388.772L207.753 418.118L215.05 419.959C221.996 410.192 234.428 392.959 234.701 392.625C235.079 392.163 246.437 365.194 246.437 365.194L254.766 391.701L268.422 422.247L275.401 420.332L270.476 388.001Z" fill="#263238" stroke="#263238" stroke-width="2.44115" stroke-miterlimit="10"/>
<path d="M202.523 440.399C203.702 439.678 205.748 436.135 207.469 432.807L203.469 436.546L198.737 435.467L199.557 431.569C198.659 432.95 197.86 434.487 197.412 436.083C195.898 441.478 200.251 441.786 202.523 440.399Z" fill="#263238" stroke="#263238" stroke-width="2.44115" stroke-miterlimit="10"/>
<path d="M283.725 441.632C284.482 439.321 283.914 435.314 281.833 433.464C281.69 433.336 281.54 433.198 281.388 433.054L282.401 438.242L278.615 439.321L272.603 432.837C273.209 434.989 274.29 437.929 275.966 439.474C278.804 442.094 282.968 443.944 283.725 441.632Z" fill="#263238" stroke="#263238" stroke-width="2.44115" stroke-miterlimit="10"/>
<path d="M227.246 350.63C227.246 350.63 235.38 362.336 246.67 362.864C257.96 363.392 266.724 350.813 266.724 350.813L227.984 349.552L227.246 350.63Z" fill="white" stroke="#263238" stroke-width="2.44115" stroke-miterlimit="10"/>
<path d="M240.031 306.253C240.031 306.253 227.357 311.275 227.245 311.914C227.132 312.553 218.625 340.19 218.625 340.19C218.625 340.19 215.59 345.711 219.403 347.446C223.216 349.181 230.049 343.417 230.049 343.417L227.245 350.631C227.245 350.631 236.265 354.318 248.54 354.831C257.975 355.225 266.722 350.813 266.722 350.813L265.376 343.235C265.376 343.235 273.251 347.551 276.055 346.546C278.859 345.542 280.966 343.509 280.966 342.14C280.966 340.771 279.62 340.404 277.377 338.396C275.134 336.387 271.433 326.434 271.433 326.434C271.433 326.434 268.292 312.737 267.507 311.641C266.722 310.545 256.965 306.984 256.965 306.984L240.031 306.253Z" fill="#B2B2B2" stroke="#263238" stroke-width="2.44115" stroke-miterlimit="10"/>
<path d="M232.135 317.328L234.342 322.822L230.05 343.417" stroke="#263238" stroke-width="2.44115" stroke-miterlimit="10"/>
<path d="M265.357 318.278L263.799 322.61L265.378 343.234" stroke="#263238" stroke-width="2.44115" stroke-miterlimit="10"/>
<path d="M228.243 347.862C228.243 347.862 247.319 352.617 266.265 348.284" stroke="#263238" stroke-width="2.44115" stroke-miterlimit="10"/>
<path d="M87.0786 333.406C87.0786 333.406 83.609 334.011 82.8662 334.314C82.1233 334.617 81.9991 335.827 81.0078 336.332C80.0165 336.837 78.5295 337.543 79.3966 338.047C80.2637 338.552 82.0741 338.927 82.9658 337.932C83.8575 336.938 86.0943 336.095 86.4634 336.214" fill="white"/>
<path d="M87.0786 333.406C87.0786 333.406 83.609 334.011 82.8662 334.314C82.1233 334.617 81.9991 335.827 81.0078 336.332C80.0165 336.837 78.5295 337.543 79.3966 338.047C80.2637 338.552 82.0741 338.927 82.9658 337.932C83.8575 336.938 86.0943 336.095 86.4634 336.214" stroke="#263238" stroke-width="2.44115" stroke-miterlimit="10"/>
<path d="M212.994 347.269C212.994 347.269 211.674 347.206 210.898 346.701C210.121 346.195 208.879 346.005 208.18 345.879C207.482 345.752 207.714 345.247 208.724 344.931C209.734 344.615 211.597 344.741 212.529 345.058C213.46 345.375 213.927 345.753 213.927 345.753L212.994 347.269Z" fill="white" stroke="#263238" stroke-width="2.44115" stroke-miterlimit="10"/>
<path d="M380.858 337.46H167.25V345.493H380.858V337.46Z" fill="#345782" stroke="#263238" stroke-width="2.44115" stroke-miterlimit="10"/>
<path d="M128.771 305.381C104.286 305.381 84.4363 321.542 84.4363 341.477C84.4363 361.411 104.286 377.572 128.771 377.572C153.256 377.572 173.105 361.411 173.105 341.477C173.105 321.542 153.257 305.381 128.771 305.381ZM128.771 368.128C110.693 368.128 96.0366 356.196 96.0366 341.477C96.0366 326.757 110.692 314.826 128.771 314.826C146.848 314.826 161.505 326.757 161.505 341.477C161.505 356.196 146.85 368.128 128.771 368.128Z" fill="#345782" stroke="#263238" stroke-width="2.44115" stroke-miterlimit="10"/>
<path d="M342.452 337.46V375.132H351.552C351.55 375.062 351.539 374.994 351.539 374.924C351.539 370.093 356.349 366.177 362.283 366.177C368.217 366.177 373.027 370.093 373.027 374.924C373.027 374.993 373.016 375.062 373.014 375.132H380.859V337.46H342.452Z" fill="#345782" stroke="#263238" stroke-width="2.44115" stroke-miterlimit="10"/>
<path d="M292.524 337.46V359.081H297.746C297.745 359.041 297.739 359.002 297.739 358.961C297.739 356.189 300.5 353.941 303.905 353.941C307.31 353.941 310.071 356.188 310.071 358.961C310.071 359.002 310.065 359.041 310.064 359.081H314.566V337.46H292.524Z" fill="#345782" stroke="#263238" stroke-width="2.44115" stroke-miterlimit="10"/>
<path d="M255.521 277.819C255.521 277.819 258.601 275.767 257.202 273.716C255.801 271.664 249.641 268.624 247.122 269.385C244.602 270.145 239.656 274.4 239.282 275.996C238.908 277.592 242.829 279.796 243.575 279.871C244.322 279.947 250.669 276.907 255.521 277.819Z" fill="#263238" stroke="#263238" stroke-width="2.44115" stroke-miterlimit="10"/>
<path d="M249.455 277.135C249.455 277.135 239.376 279.414 236.575 283.822C233.776 288.229 233.588 289.216 235.175 291.344C236.762 293.471 240.681 297.271 244.322 298.791C247.961 300.31 259.535 298.107 259.535 298.107C259.535 298.107 263.081 296.815 264.2 294.535C265.321 292.256 267.84 289.064 266.161 285.645C264.48 282.226 257.014 277.515 254.681 276.982C252.348 276.451 249.455 277.135 249.455 277.135Z" fill="#263238" stroke="#263238" stroke-width="2.44115" stroke-miterlimit="10"/>
<path d="M256.791 282.901C256.791 282.901 251.765 285.42 249.187 286.889C246.609 288.358 243.516 289.198 243.516 289.198C243.516 289.198 241.195 290.037 241.711 292.241C242.227 294.445 243.203 302.058 243.203 302.058L241.453 305.149L248.929 311.866L254.858 305.569L255.503 302.316C255.503 302.316 260.916 299.588 261.045 298.958C261.174 298.328 262.721 289.094 262.592 288.148C262.463 287.204 256.791 282.901 256.791 282.901Z" fill="white" stroke="#263238" stroke-width="2.44115" stroke-miterlimit="10"/>
<path d="M257.668 289.37C257.668 289.37 257.388 291.422 257.388 291.725C257.388 292.028 259.628 293.624 258.788 294.232C257.948 294.84 256.268 295.22 256.268 295.22" stroke="#263238" stroke-width="2.44115" stroke-miterlimit="10" stroke-linecap="round" stroke-linejoin="round"/>
<path d="M256.549 297.12C256.549 297.12 255.616 297.955 253.562 296.208" stroke="#263238" stroke-width="2.44115" stroke-miterlimit="10" stroke-linecap="round" stroke-linejoin="round"/>
<path d="M255.503 302.316C255.503 302.316 253.375 302.135 252.536 301.679C251.696 301.223 249.269 299.703 249.269 299.703L254.028 306.39L254.858 305.569L255.503 302.316Z" fill="#263238" stroke="#263238" stroke-width="2.44115" stroke-miterlimit="10" stroke-linecap="round" stroke-linejoin="round"/>
<path d="M244.509 291.193C244.509 291.193 242.736 286.861 240.682 289.293C238.629 291.725 241.896 295.144 243.483 295.068" fill="white"/>
<path d="M244.509 291.193C244.509 291.193 242.736 286.861 240.682 289.293C238.629 291.725 241.896 295.144 243.483 295.068" stroke="#263238" stroke-width="2.44115" stroke-miterlimit="10"/>
<path d="M253.049 291.877C253.487 291.877 253.842 291.468 253.842 290.965C253.842 290.461 253.487 290.052 253.049 290.052C252.611 290.052 252.256 290.461 252.256 290.965C252.256 291.468 252.611 291.877 253.049 291.877Z" fill="#263238"/>
<path d="M260.049 291.877C260.487 291.877 260.842 291.468 260.842 290.965C260.842 290.461 260.487 290.052 260.049 290.052C259.611 290.052 259.256 290.461 259.256 290.965C259.256 291.468 259.611 291.877 260.049 291.877Z" fill="#263238"/>
<path d="M250.949 288.989C250.949 288.989 252.629 287.621 254.868 288.684" stroke="#263238" stroke-width="2.44115" stroke-miterlimit="10" stroke-linecap="round" stroke-linejoin="round"/>
<path d="M258.508 288.533C258.508 288.533 261.028 287.697 261.587 289.293" stroke="#263238" stroke-width="2.44115" stroke-miterlimit="10" stroke-linecap="round" stroke-linejoin="round"/>
<path d="M241.429 302.819L247.962 309.581L243.483 313.532L238.442 306.161L241.429 302.819Z" fill="white" stroke="#263238" stroke-width="2.44115" stroke-miterlimit="10"/>
<path d="M247.962 309.582L248.929 311.866L246.656 310.949L247.962 309.582Z" fill="white" stroke="#263238" stroke-width="2.44115" stroke-miterlimit="10"/>
<path d="M250.295 308.442L253.468 313.532L258.322 306.846L255.055 304.718L250.295 308.442Z" fill="white" stroke="#263238" stroke-width="2.44115" stroke-miterlimit="10"/>
<path d="M250.295 308.442L248.929 311.865L251.228 310.038L250.295 308.442Z" fill="white" stroke="#263238" stroke-width="2.44115" stroke-miterlimit="10"/>
<path d="M213.323 343.464C213.323 343.464 212.001 346.531 212.372 346.953C212.759 347.395 214.03 347.922 214.382 346.915C214.735 345.909 215.089 343.666 214.624 343.034C214.158 342.402 213.323 343.464 213.323 343.464Z" fill="white" stroke="#263238" stroke-width="2.44115" stroke-miterlimit="10"/>
<path d="M215.419 344.412C215.419 344.412 214.098 347.479 214.468 347.901C214.856 348.343 216.126 348.87 216.479 347.864C216.831 346.857 217.185 344.613 216.719 343.982C216.255 343.35 215.419 344.412 215.419 344.412Z" fill="white" stroke="#263238" stroke-width="2.44115" stroke-miterlimit="10"/>
<path d="M218.137 344.286C218.137 344.286 216.816 347.353 217.185 347.775C217.573 348.217 218.843 348.744 219.196 347.738C219.549 346.731 219.902 344.487 219.437 343.856C218.972 343.223 218.137 344.286 218.137 344.286Z" fill="white" stroke="#263238" stroke-width="2.44115" stroke-miterlimit="10"/>
<path d="M220.299 344.834C220.299 344.834 219.295 347.435 219.577 347.794C219.871 348.169 220.835 348.616 221.104 347.762C221.372 346.909 221.64 345.005 221.286 344.469C220.932 343.932 220.299 344.834 220.299 344.834Z" fill="white" stroke="#263238" stroke-width="2.44115" stroke-miterlimit="10"/>
<path d="M85.4758 338.797C85.4758 338.797 81.507 338.181 81.1497 338.673C80.7759 339.189 80.6083 340.648 81.8832 340.766C83.158 340.884 85.8507 340.694 86.4155 340.049C86.9803 339.405 85.4758 338.797 85.4758 338.797Z" fill="white" stroke="#263238" stroke-width="2.44115" stroke-miterlimit="10"/>
<path d="M85.1089 341.225C85.1089 341.225 81.1402 340.609 80.7828 341.102C80.409 341.618 80.2403 343.077 81.5163 343.195C82.7912 343.313 85.4839 343.122 86.0487 342.478C86.6134 341.833 85.1089 341.225 85.1089 341.225Z" fill="white" stroke="#263238" stroke-width="2.44115" stroke-miterlimit="10"/>
<path d="M86.1871 344.035C86.1871 344.035 82.2183 343.419 81.861 343.912C81.4872 344.428 81.3196 345.887 82.5945 346.005C83.8693 346.124 86.562 345.933 87.1268 345.288C87.6916 344.643 86.1871 344.035 86.1871 344.035Z" fill="white" stroke="#263238" stroke-width="2.44115" stroke-miterlimit="10"/>
<path d="M86.3018 346.433C86.3018 346.433 82.9752 346.033 82.6611 346.417C82.3319 346.818 82.1503 347.938 83.2212 348.005C84.2922 348.072 86.5654 347.878 87.0587 347.375C87.5532 346.871 86.3018 346.433 86.3018 346.433Z" fill="white" stroke="#263238" stroke-width="2.44115" stroke-miterlimit="10"/>
<path d="M282.188 343.464C282.188 343.464 283.51 346.531 283.139 346.953C282.752 347.395 281.481 347.922 281.129 346.915C280.775 345.909 280.422 343.666 280.888 343.034C281.352 342.402 282.188 343.464 282.188 343.464Z" fill="white" stroke="#263238" stroke-width="2.44115" stroke-miterlimit="10"/>
<path d="M280.092 344.412C280.092 344.412 281.413 347.479 281.043 347.901C280.655 348.343 279.385 348.87 279.032 347.864C278.68 346.857 278.326 344.613 278.792 343.982C279.256 343.35 280.092 344.412 280.092 344.412Z" fill="white" stroke="#263238" stroke-width="2.44115" stroke-miterlimit="10"/>
<path d="M277.374 344.286C277.374 344.286 278.695 347.353 278.326 347.775C277.938 348.217 276.668 348.744 276.315 347.738C275.962 346.731 275.609 344.487 276.074 343.856C276.539 343.223 277.374 344.286 277.374 344.286Z" fill="white" stroke="#263238" stroke-width="2.44115" stroke-miterlimit="10"/>
<path d="M275.213 344.834C275.213 344.834 276.216 347.435 275.934 347.794C275.639 348.169 274.676 348.616 274.408 347.762C274.139 346.909 273.871 345.005 274.225 344.469C274.579 343.932 275.213 344.834 275.213 344.834Z" fill="white" stroke="#263238" stroke-width="2.44115" stroke-miterlimit="10"/>
<path d="M182.242 350.488L180.914 345.562" stroke="#263238" stroke-width="2.44115" stroke-miterlimit="10"/>
<path d="M191.596 348.604L199.143 347.726L202.671 345.254C202.671 345.254 203.944 341.982 204.14 341.584C204.336 341.185 203.944 340.387 202.964 340.626C201.984 340.865 201.69 342.062 201.69 342.062C201.69 342.062 200.906 339.827 200.122 340.306C199.338 340.785 199.24 341.423 199.24 341.423C199.24 341.423 197.966 340.147 197.378 340.546C196.79 340.944 196.594 342.142 196.594 342.142C196.594 342.142 195.123 341.184 194.634 341.743C194.144 342.301 194.634 343.259 194.634 343.259L195.222 345.173L194.242 345.333L190.127 345.492" fill="white"/>
<path d="M191.596 348.604L199.143 347.726L202.671 345.254C202.671 345.254 203.944 341.982 204.14 341.584C204.336 341.185 203.944 340.387 202.964 340.626C201.984 340.865 201.69 342.062 201.69 342.062C201.69 342.062 200.906 339.827 200.122 340.306C199.338 340.785 199.24 341.423 199.24 341.423C199.24 341.423 197.966 340.147 197.378 340.546C196.79 340.944 196.594 342.142 196.594 342.142C196.594 342.142 195.123 341.184 194.634 341.743C194.144 342.301 194.634 343.259 194.634 343.259L195.222 345.173L194.242 345.333L190.127 345.492" stroke="#263238" stroke-width="2.44115" stroke-miterlimit="10"/>
<path d="M199.24 341.423C199.24 341.423 200.055 343.889 200.169 344.165C200.283 344.443 199.534 347.406 199.143 347.727" stroke="#263238" stroke-width="2.44115" stroke-miterlimit="10"/>
<path d="M201.69 342.061C201.69 342.061 202.61 344.443 202.155 345.413" stroke="#263238" stroke-width="2.44115" stroke-miterlimit="10"/>
<path d="M196.594 342.141L197.898 344.257C197.898 344.257 197.842 346.937 197.387 347.63" stroke="#263238" stroke-width="2.44115" stroke-miterlimit="10"/>
<path d="M195.222 345.172L195.287 346.198" stroke="#263238" stroke-width="2.44115" stroke-miterlimit="10"/>
<path d="M190.52 345.644C190.52 345.644 189.384 346.476 190.35 347.584" stroke="#263238" stroke-width="2.44115" stroke-miterlimit="10"/>
</svg>
