<svg width="23" height="23" viewBox="0 0 23 23" fill="none" xmlns="http://www.w3.org/2000/svg">
<path d="M11.7558 11.4838C12.8374 11.4838 13.8748 11.0541 14.6396 10.2893C15.4045 9.52447 15.8341 8.48713 15.8341 7.40549C15.8341 6.32385 15.4045 5.2865 14.6396 4.52167C13.8748 3.75683 12.8374 3.32715 11.7558 3.32715C10.6742 3.32715 9.63682 3.75683 8.87198 4.52167C8.10714 5.2865 7.67746 6.32385 7.67746 7.40549C7.67746 8.48713 8.10714 9.52447 8.87198 10.2893C9.63682 11.0541 10.6742 11.4838 11.7558 11.4838ZM14.4747 7.40549C14.4747 8.12659 14.1882 8.81815 13.6784 9.32804C13.1685 9.83793 12.4769 10.1244 11.7558 10.1244C11.0347 10.1244 10.3431 9.83793 9.83325 9.32804C9.32336 8.81815 9.03691 8.12659 9.03691 7.40549C9.03691 6.68439 9.32336 5.99283 9.83325 5.48294C10.3431 4.97305 11.0347 4.6866 11.7558 4.6866C12.4769 4.6866 13.1685 4.97305 13.6784 5.48294C14.1882 5.99283 14.4747 6.68439 14.4747 7.40549ZM19.9125 18.2811C19.9125 19.6405 18.553 19.6405 18.553 19.6405H4.95857C4.95857 19.6405 3.59912 19.6405 3.59912 18.2811C3.59912 16.9216 4.95857 12.8433 11.7558 12.8433C18.553 12.8433 19.9125 16.9216 19.9125 18.2811ZM18.553 18.2756C18.5517 17.9412 18.3437 16.9352 17.422 16.0135C16.5356 15.1271 14.8676 14.2027 11.7558 14.2027C8.64403 14.2027 6.97599 15.1271 6.08963 16.0135C5.16792 16.9352 4.96129 17.9412 4.95857 18.2756H18.553Z" fill="#848484"/>
</svg>
