<svg width="16" height="16" viewBox="0 0 16 16" fill="none" xmlns="http://www.w3.org/2000/svg">
<path d="M7.72463 6.87572C7.52463 6.87572 7.33282 6.95517 7.1914 7.09659C7.04997 7.23801 6.97052 7.42982 6.97052 7.62982V10.6462C6.97052 10.8462 7.04997 11.038 7.1914 11.1795C7.33282 11.3209 7.52463 11.4003 7.72463 11.4003C7.92463 11.4003 8.11644 11.3209 8.25786 11.1795C8.39928 11.038 8.47873 10.8462 8.47873 10.6462V7.62982C8.47873 7.42982 8.39928 7.23801 8.25786 7.09659C8.11644 6.95517 7.92463 6.87572 7.72463 6.87572ZM8.01119 3.91963C7.82759 3.84421 7.62166 3.84421 7.43807 3.91963C7.3455 3.95552 7.26093 4.00934 7.18921 4.078C7.1226 4.15129 7.06904 4.23546 7.03085 4.32685C6.98864 4.41635 6.96797 4.51449 6.97052 4.61341C6.96995 4.71265 6.98897 4.81104 7.0265 4.90291C7.06403 4.99479 7.11932 5.07836 7.18921 5.14882C7.26251 5.21543 7.34668 5.26899 7.43807 5.30718C7.55231 5.35412 7.67634 5.37227 7.79924 5.36006C7.92215 5.34784 8.04017 5.30562 8.14294 5.2371C8.2457 5.16859 8.33007 5.07589 8.38862 4.96714C8.44717 4.85839 8.47811 4.73692 8.47873 4.61341C8.47595 4.41375 8.39784 4.22251 8.26004 4.078C8.18832 4.00934 8.10375 3.95552 8.01119 3.91963ZM7.72463 0.0887909C6.23315 0.0887909 4.77517 0.531065 3.53506 1.35968C2.29494 2.1883 1.32839 3.36605 0.757624 4.74399C0.186861 6.12194 0.0375236 7.63819 0.328496 9.101C0.619468 10.5638 1.33768 11.9075 2.39231 12.9621C3.44695 14.0168 4.79063 14.735 6.25345 15.026C7.71626 15.3169 9.23251 15.1676 10.6105 14.5968C11.9884 14.0261 13.1661 13.0595 13.9948 11.8194C14.8234 10.5793 15.2657 9.1213 15.2657 7.62982C15.2657 6.63952 15.0706 5.65891 14.6916 4.74399C14.3127 3.82907 13.7572 2.99776 13.0569 2.29751C12.3567 1.59726 11.5254 1.04179 10.6105 0.662818C9.69553 0.283845 8.71493 0.0887909 7.72463 0.0887909V0.0887909ZM7.72463 13.6626C6.53145 13.6626 5.36506 13.3088 4.37297 12.6459C3.38088 11.983 2.60763 11.0408 2.15102 9.93848C1.69441 8.83613 1.57494 7.62313 1.80772 6.45288C2.0405 5.28262 2.61507 4.20768 3.45878 3.36397C4.30248 2.52026 5.37743 1.94569 6.54768 1.71292C7.71793 1.48014 8.93093 1.59961 10.0333 2.05622C11.1356 2.51283 12.0778 3.28607 12.7407 4.27816C13.4036 5.27026 13.7574 6.43664 13.7574 7.62982C13.7574 9.22982 13.1219 10.7643 11.9905 11.8957C10.8591 13.027 9.32463 13.6626 7.72463 13.6626V13.6626Z" fill="#0052EA"/>
</svg>
