<svg width="17" height="18" viewBox="0 0 17 18" fill="none" xmlns="http://www.w3.org/2000/svg">
<path d="M8.7558 9.12909C9.83745 9.12909 10.8748 8.69941 11.6396 7.93458C12.4045 7.16974 12.8341 6.1324 12.8341 5.05075C12.8341 3.96911 12.4045 2.93177 11.6396 2.16693C10.8748 1.40209 9.83745 0.972412 8.7558 0.972412C7.67416 0.972412 6.63682 1.40209 5.87198 2.16693C5.10714 2.93177 4.67746 3.96911 4.67746 5.05075C4.67746 6.1324 5.10714 7.16974 5.87198 7.93458C6.63682 8.69941 7.67416 9.12909 8.7558 9.12909ZM11.4747 5.05075C11.4747 5.77185 11.1882 6.46341 10.6784 6.9733C10.1685 7.48319 9.4769 7.76965 8.7558 7.76965C8.03471 7.76965 7.34315 7.48319 6.83325 6.9733C6.32336 6.46341 6.03691 5.77185 6.03691 5.05075C6.03691 4.32966 6.32336 3.6381 6.83325 3.1282C7.34315 2.61831 8.03471 2.33186 8.7558 2.33186C9.4769 2.33186 10.1685 2.61831 10.6784 3.1282C11.1882 3.6381 11.4747 4.32966 11.4747 5.05075ZM16.9125 15.9263C16.9125 17.2858 15.553 17.2858 15.553 17.2858H1.95857C1.95857 17.2858 0.599121 17.2858 0.599121 15.9263C0.599121 14.5669 1.95857 10.4885 8.7558 10.4885C15.553 10.4885 16.9125 14.5669 16.9125 15.9263ZM15.553 15.9209C15.5517 15.5865 15.3437 14.5805 14.422 13.6588C13.5356 12.7724 11.8676 11.848 8.7558 11.848C5.64403 11.848 3.97599 12.7724 3.08963 13.6588C2.16792 14.5805 1.96129 15.5865 1.95857 15.9209H15.553Z" fill="#848484"/>
</svg>
